# xmcd
#
# Track frame offsets: 
#        150
#        18290
#        35110
#        61052
#
# Disc length: 1251 seconds
#
# Revision: 0
# Processed by: cddbd v1.5.2PL0 Copyright (c) Steve Scherf et al.
# Submitted via: ExactAudioCopy v0.99pb5
#
DISCID=2a04e104
DTITLE=DJ Bailar - Fair Play (Tighter, Faster, Harder) (Single)
DYEAR=2000
DGENRE=Dance
TTITLE0=Fair Play (Tighter, Faster, Harder) (Radio Edit)
TTITLE1=Fair Play (Tighter, Faster, Harder) (Butterfly Radio Edit)
TTITLE2=Fair Play (Tighter, Faster, Harder) (Original Mix)
TTITLE3=Fair Play (Tighter, Faster, Harder) (Butterfly Club Mix)
EXTD=
EXTT0=
EXTT1=
EXTT2=
EXTT3=
PLAYORDER=
